<svg id="g12" xmlns="http://www.w3.org/2000/svg" width="361.863" height="241.242" viewBox="0 0 361.863 241.242">
  <path id="path14" d="M0-2425.418H361.863V-2666.66H0Z" transform="translate(0 2666.66)" fill="none"/>
  <path id="path16" d="M704.957-2184.8c-17.875,0-259.537-.521-259.537-.55-.1-.235-30.678-37.712,7.826-76.9,19.078-19.415-17.52-44.569,0-66.166,19.485-24.019,38.837-23.661,56.786-23.3,9.7.194,18.982.388,27.658-3.261a39.733,39.733,0,0,0,13.148-9.329,48.925,48.925,0,0,1,8.079-6.708q.668-.445,1.347-.867a53.886,53.886,0,0,1,5.391-2.925q1.869-.881,3.808-1.629h0a62.027,62.027,0,0,1,6.31-2.055,71.482,71.482,0,0,1,9.411-1.846q2.1-.273,4.231-.432c27.641-2.078,58.747,9.61,74.8,26.693,3.231,3.44,17.928,21.239,6.344,45.7-7.314,15.447,23.327,30.2,34.217,47.837,27.683,44.846.431,75.147.18,75.732" transform="translate(-394.567 2406.852)" fill="#ebf3fa"/>
  <path id="path18" d="M2169.342-1819.884l-7.892-11.829-4.736-17.685-.037-.141h-7.119l-12.842-19.25c1.2.214,2.832,1.245,4.909,2.646a3.4,3.4,0,0,0,1.789.725c1.69,0,1.694-2.943,3.33-4.211a2.309,2.309,0,0,1,1.446-.415,10.988,10.988,0,0,1,3.141.682,10.929,10.929,0,0,0,2.575.682c.322,0,.532-.1.585-.37.3-1.508-1.9-2.306-3.8-2.874s-2.626-1.327-.878-4.422-.31-2.225-1.579-5.92a4.618,4.618,0,0,0-2.681-2.929c-.876.179-1.747.392-2.6.638a35.226,35.226,0,0,0-5.243,1.964,35.287,35.287,0,0,0-7.2,4.492h0a35.287,35.287,0,0,1,7.2-4.492,35.226,35.226,0,0,1,5.243-1.964c.858-.246,1.729-.46,2.6-.638a34.952,34.952,0,0,1,7.048-.719,35.061,35.061,0,0,1,12,2.123q1.259.458,2.462,1a34.7,34.7,0,0,1,3.274,1.685,34.936,34.936,0,0,1,10.968,10.073h0a35.259,35.259,0,0,1,4.263,8.114,34.932,34.932,0,0,1,1.357,4.637q.324,1.474.522,2.978a34.874,34.874,0,0,1,.182,7.335h0a2.132,2.132,0,0,0-.826-.513s.552-.918-3.85-2.146-2.523-6.138-6.515-7.217a7.465,7.465,0,0,0-1.947-.287,6.307,6.307,0,0,0-2.229.449,5.837,5.837,0,0,1-2.046.448,5.165,5.165,0,0,1-1.385-.2,9.67,9.67,0,0,0-2.535-.377c-2.063,0-3.519.929-3.058,3.193.637,3.123-3,2.359-2.3,6.065s4.913,3.931,8.371,4.163-1.924,4.522.375,7.688,6.858,3.706,4.4,5.33-7.12,4.965-3.6,8.109a4,4,0,0,0,2.614,1.03,35.133,35.133,0,0,1-3.756,2.353m10.931-39.917c1.556,0,2.333,1.131,3.166,2.262s1.728,2.262,3.517,2.262q.232,0,.485-.025-.2-1.505-.522-2.978a34.937,34.937,0,0,0-1.357-4.637,35.259,35.259,0,0,0-4.263-8.114h0a2.582,2.582,0,0,0-.656-.087h-.036a6.848,6.848,0,0,0-2.849-.785,2.5,2.5,0,0,0-2.032.876c-1.567,1.917-4.912-.169-6.129,2.5s4.772,1.239,6.55,3.873c1.677,2.487.4,4.9,3.271,4.9.171,0,.356-.009.557-.027.1-.008.2-.013.3-.013m-25.83-22.025c-1.4,0-2.148,1.321-1.361,3.312.881,2.222,1.032,5.687,2.525,5.687a1.6,1.6,0,0,0,.826-.285c2.012-1.252,2.447-2.654,3.816-2.654a2.611,2.611,0,0,1,.63.084s2.846-2.014.17-3.886-3-.813-5.216-1.9a3.208,3.208,0,0,0-1.391-.363" transform="translate(-1937.763 1956.546)" fill="#dbe8fe"/>
  <path id="path20" d="M2143.413-1858.19a3.4,3.4,0,0,1-1.789-.725c-2.077-1.4-3.707-2.433-4.909-2.646l-6.213-9.313a35.28,35.28,0,0,1,7.2-4.492,35.21,35.21,0,0,1,5.243-1.964c.858-.246,1.729-.46,2.6-.638a4.616,4.616,0,0,1,2.681,2.929c1.269,3.695,3.324,2.825,1.579,5.92s-1.029,3.854.878,4.422,4.1,1.367,3.8,2.874c-.053.266-.263.37-.585.37a10.93,10.93,0,0,1-2.575-.681,10.986,10.986,0,0,0-3.141-.682,2.309,2.309,0,0,0-1.446.415c-1.637,1.268-1.64,4.211-3.33,4.211" transform="translate(-1937.763 1949.319)" fill="#bacdfe"/>
  <path id="path22" d="M2478.152-1542.89h0a4,4,0,0,1-2.614-1.03c-3.52-3.145,1.145-6.483,3.6-8.109s-2.1-2.163-4.4-5.33,3.084-7.457-.375-7.688-7.667-.456-8.371-4.163,2.935-2.942,2.3-6.065c-.461-2.264,1-3.193,3.058-3.193a9.672,9.672,0,0,1,2.536.378,5.166,5.166,0,0,0,1.385.2,5.835,5.835,0,0,0,2.046-.448,6.309,6.309,0,0,1,2.229-.449,7.464,7.464,0,0,1,1.947.287c3.991,1.078,2.112,5.99,6.515,7.217s3.85,2.146,3.85,2.146a2.129,2.129,0,0,1,.826.513h0a35.14,35.14,0,0,1-2.012,9.2,35.259,35.259,0,0,1-2.7,5.754,34.927,34.927,0,0,1-9.817,10.774" transform="translate(-2242.818 1677.199)" fill="#bacdfe"/>
  <path id="path24" d="M2578.368-1714.421c-1.79,0-2.683-1.13-3.518-2.262s-1.61-2.262-3.166-2.262c-.1,0-.2,0-.3.013-.2.018-.386.026-.557.026-2.869,0-1.595-2.412-3.271-4.9-1.778-2.634-7.767-1.207-6.55-3.873s4.562-.579,6.129-2.5a2.5,2.5,0,0,1,2.033-.876,6.848,6.848,0,0,1,2.849.785h.036a2.584,2.584,0,0,1,.656.087h0a35.246,35.246,0,0,1,4.263,8.114,34.937,34.937,0,0,1,1.357,4.637q.324,1.475.522,2.978-.253.025-.485.025" transform="translate(-2329.175 1815.69)" fill="#bacdfe"/>
  <path id="path26" d="M2379.407-1831.716c-1.492,0-1.644-3.466-2.525-5.687-.788-1.991-.041-3.312,1.361-3.312a3.207,3.207,0,0,1,1.391.363c2.216,1.083,2.539.023,5.216,1.9s-.17,3.886-.17,3.886a2.606,2.606,0,0,0-.63-.084c-1.369,0-1.8,1.4-3.816,2.654a1.6,1.6,0,0,1-.826.285" transform="translate(-2161.564 1915.435)" fill="#bacdfe"/>
  <path id="path28" d="M644.236-353.9H656.49c.657-.557-.454-1.823-1.615-1.907a7.166,7.166,0,0,0-1.87.221c-.169-2.24-1.132-12.308-4.761-11.9-4.081.454,0,4.434,1.154,6.791a56.075,56.075,0,0,1,2.168,5.432c-.331.072-.674.142-1.025.206-.541-1.66-2.554-7.247-5.113-6.921-3.005.381-1.8,2.621.333,3.95,1.563.978,3.482,2.368,4.393,3.038a13.056,13.056,0,0,1-2.4.193,5.161,5.161,0,0,0-3.521.9" transform="translate(-585.4 575.499)" fill="#a8d29f"/>
  <path id="path30" d="M2689.959-344.167h-11.382c-.61-.517.422-1.692,1.5-1.772a6.647,6.647,0,0,1,1.737.206c.157-2.081,1.051-11.434,4.422-11.057,3.791.421,0,4.118-1.071,6.308a52.348,52.348,0,0,0-2.014,5.044c.309.066.627.131.953.192.5-1.543,2.371-6.732,4.749-6.429,2.792.353,1.669,2.434-.309,3.669-1.452.908-3.234,2.2-4.081,2.823a12.158,12.158,0,0,0,2.226.179,4.791,4.791,0,0,1,3.27.837" transform="translate(-2436.091 565.765)" fill="#a8d29f"/>
  <path id="path32" d="M2867.968-1068.111s.271-2.695-1.139-2.6-1.781.739-1.625,1.257a14.75,14.75,0,0,0,1.528,2.231l1.235-.885" transform="translate(-2605.971 1215.095)" fill="#ffb27d"/>
  <path id="path34" d="M2900.822-1040.808a23.006,23.006,0,0,1-4.915,3.948q-.476.3-1,.607a37.259,37.259,0,0,1-4.6,2.262c-.194.08-.422.168-.679.259a33.153,33.153,0,0,1-8,1.848c-.2.007-.388.007-.565,0-3.49-.141-3.914-13.682-3.914-13.682a1.716,1.716,0,0,1,2.181-1.013s2.721,7.647,3.7,8.27c.867.555,5.846-6.995,10.133-7.523,2.886-.355,7.658,5.024,7.658,5.024" transform="translate(-2616.868 1193.191)" fill="#739af0"/>
  <path id="path36" d="M2950.375-263.947s.258,2.981-.372,3.291l-8.063-.016s0-.931,1.294-1.137,3.57-.965,3.956-2.655,3.185.517,3.185.517" transform="translate(-2675.794 482.361)" fill="#1c3154"/>
  <path id="path38" d="M2969.5-744.994c.04,1.949.133,3.959.316,5.766.871,8.574,1.177,18.933,1.3,20.93.217,3.467.9,9.006.9,9.006a4.43,4.43,0,0,0,4.007.674A90.119,90.119,0,0,0,2978.712-725c.007-.139.014-.276.021-.415.057-1.111.117-2.381.177-3.75.4-9.171.842-22.795.842-22.795l-10.119-2.376s-.233,4.479-.133,9.337" transform="translate(-2700.84 927.332)" fill="#2a4e96"/>
  <path id="path40" d="M2969.5-744.994c2.564,4.424,7.452,12.575,9.41,15.834.4-9.171.842-22.795.842-22.795l-10.119-2.376s-.233,4.479-.133,9.337" transform="translate(-2700.84 927.332)" fill="#233862"/>
  <path id="path42" d="M2934.66-937.985a33.15,33.15,0,0,1-8,1.848c.35-.066,2.9-.572,3.847-1.712,1.013-1.224,2.721-4.552,4.078-3.194.639.639.452,1.9.076,3.058" transform="translate(-2661.896 1097.443)" fill="#6385db"/>
  <path id="path44" d="M3180.3-668.569a15.645,15.645,0,0,1,.525,3.01,10.739,10.739,0,0,1-1.1,2.861c-.382.461-.4-2-.652-2.385s-.117.918-.321,1.024-.543-.988-.695-1.376.544-1.738.608-2.707,1.633-.427,1.633-.427" transform="translate(-2890.532 849.466)" fill="#ffb27d"/>
  <path id="path46" d="M3204.95-296.031s1.435,1.309,1.155,2.24-1.575,1.551-1.75,2.689-.875,1.757-1.505,1.757h-3s-.464-.8.656-1.041,1.542-1.579,1.473-2.819a21.921,21.921,0,0,1,.1-2.9l2.38-.551.49.621" transform="translate(-2910.282 511.058)" fill="#1c3154"/>
  <path id="path48" d="M2988.846-756.732s9.473,20.267,14.513,29.159,6.616,11.375,6.616,11.375,2.888-1.137,3.149-1.913c0,0-1.928-17.168-5.3-21.352-1.908-2.365-4.148-9.461-4.253-11.943s-2.318-8.4-2.318-8.4l-12.4,3.079" transform="translate(-2718.457 932.317)" fill="#2a4e96"/>
  <path id="path50" d="M2969.2-1016.2a16.414,16.414,0,0,0,8.325,4.322c2.3.44,6.969.865,8.127-.772a2.933,2.933,0,0,0,.213-1.843c-.155-2.31-.737-6.776,1.887-15.752a15.235,15.235,0,0,0,.5-2.4c.573-4.591.511-8.057-3.473-9.909-5.969-2.774-8.419-.492-8.419-.492a10,10,0,0,0-4.625,5.807c-2.9,8.649-2.54,21.039-2.54,21.039" transform="translate(-2700.571 1190.731)" fill="#739af0"/>
  <path id="path52" d="M3056.117-1097.138a4.429,4.429,0,0,1-4.458.292,5.076,5.076,0,0,1-.082-1.832c.033-.859.113-1.7.113-1.7l2.124-1.394,2.027-1.329c-.243,4.572.729,5.641.276,5.966" transform="translate(-2775.492 1244.553)" fill="#ffb27d"/>
  <path id="path54" d="M3055.714-1087.853a6.529,6.529,0,0,1-3.908,2.539c.032-.859.124-1.806.124-1.806l2.113-1.291,1.671.557" transform="translate(-2775.721 1231.189)" fill="#ed985f"/>
  <path id="path56" d="M3026.481-1162.642s5.139,1.918,6.282-1.248,2.576-5.05-.656-6.409-4.309-.379-4.952.585-1.981,6.492-.674,7.072" transform="translate(-2752.185 1306.277)" fill="#ffb27d"/>
  <path id="path58" d="M3029.526-1190.92c.059-.046.178-.069.429-.033a1.028,1.028,0,0,0-.437-.222,1.27,1.27,0,0,0-.609-1.264.752.752,0,0,1,.253.605c-.546-.839-1.914-1.643-6.048-2.125-5.446-.636-4.357,3.147-3.744,3.693s2.583-.23,3.856.128,1.151,2.276,1.539,2.62.305-.145.952-.3.509.843.211,1.45.351,1.61.351,1.61l1-.725c1-.725,2.52-4.333,2.3-5.208l-.058-.234" transform="translate(-2745.747 1327.253)" fill="#2c3a64"/>
  <path id="path60" d="M3121.548-902.717c-.156-2.31-.737-6.776,1.887-15.752a15.234,15.234,0,0,0,.5-2.4h0c-1.949-.643-5.5.788-5.5.788s-.834,11.864,3.111,17.363" transform="translate(-2836.258 1078.954)" fill="#6385db"/>
  <path id="path62" d="M3067.451-1022.091s2.4.872,3.928,7.222c1.011,4.2,2.871,10.363,3.081,12.3s-2.127,13.284-2.127,13.284a1.523,1.523,0,0,1-1.137.078,1.876,1.876,0,0,1-1.133-.677s-.56-7.563-.415-11.133c.061-1.484-6.867-10.864-10.606-12.073-1.468-.474,8.408-9,8.408-9" transform="translate(-2782.168 1170.869)" fill="#739af0"/>
  <path id="path64" d="M2782.646-1227.679a79.74,79.74,0,0,1,14.933,1.275l.834-2.106.917-2.307s-8.031-3.457-12.858-8.272l-3.826,11.411" transform="translate(-2530.911 1368.237)" fill="#aec3ff"/>
  <path id="path66" d="M2778.509-1241.073l-3.98,11.75a1.06,1.06,0,0,1-.7-1.37l3.5-9.872a.875.875,0,0,1,1.175-.508" transform="translate(-2522.838 1370.107)" fill="#f99746"/>
  <path id="path68" d="M2856.548-1113.806h0a1.437,1.437,0,0,0,1.688-1.125l1.37-6.857a1.437,1.437,0,0,0-1.125-1.687,1.44,1.44,0,0,0-1.689,1.125l-1.37,6.857a1.439,1.439,0,0,0,1.127,1.688" transform="translate(-2597.077 1263.107)" fill="#f99746"/>
  <path id="path70" d="M2782.646-1126.517a79.752,79.752,0,0,1,14.933,1.275l.834-2.106c-7.516-1.534-15.768.831-15.768.831" transform="translate(-2530.911 1267.074)" fill="#739af0"/>
  <path id="path72" d="M2923.259-1155.69l2.167.381a2.389,2.389,0,0,0,2.683-1.415,1.475,1.475,0,0,0,.128-.391c.521-2.259-.719-2.675-.719-2.675l-2.789-1.087-.885,3.135v.011l-.584,2.041" transform="translate(-2658.803 1297.099)" fill="#f99746"/>
  <path id="path74" d="M2923.259-1124.172l2.167.381a2.39,2.39,0,0,0,2.683-1.415c-1.226-.891-4.265-1.018-4.265-1.018v.011l-.584,2.041" transform="translate(-2658.803 1265.581)" fill="#ed7d2b"/>
  <path id="path76" d="M2860.71-1090.3s1.059.422.865.889-1.542,1.107-1.754.739.222-2.023.889-1.628" transform="translate(-2601.054 1232.959)" fill="#ffb27d"/>
  <path id="path78" d="M2893.135-1071.775a14.788,14.788,0,0,0,.212-1.583c.012-.5.071-.9-.046-.919s-.2.078-.251.239-.231,1.153-.231,1.153l.093.958.223.152" transform="translate(-2631.117 1218.335)" fill="#ffb27d"/>
  <path id="path80" d="M1676.887-1061.229l-6,71.384s-.628,4.328,2.59,4.335c5.292.013,26.341,0,26.341,0s-3.984-.9-3.936-2.927c.058-2.388,7.018-73.467,7.018-73.467l-26.01.675" transform="translate(-1519.681 1207.08)" fill="#7599ea"/>
  <path id="path82" d="M1719.191-999.8c-1.041,0-21.419.037-26.572-.029-2.246-.028-2.64-2-2.659-3.271a6.4,6.4,0,0,1,.068-1.063l.157-1.855.4-4.728.351-4.178.451-5.369.381-4.531,4.265-50.724,26.01-.676s-2.931,29.746-5,51.4c-.232,2.412-.452,4.725-.655,6.885q-.1,1.033-.192,2.019c-.192,2.048-.368,3.93-.521,5.591-.081.876-.154,1.689-.222,2.434-.265,2.92-.42,4.785-.422,5.14a3.016,3.016,0,0,0,.051.578c.427,2.275,3.725,2.377,4.116,2.377" transform="translate(-1537.076 1220.105)" fill="#90aff4"/>
  <path id="path84" d="M1039.535-1483.823l14.624,58.74,2,8.045,6.811,27.359h126.537l-25.1-94.145h-124.87" transform="translate(-945.492 1590.83)" fill="#aec3ff"/>
  <path id="path86" d="M1019.156-1483.823l-2.027.676,22.769,95.513,2.695-2.043-23.437-94.145" transform="translate(-925.114 1590.83)" fill="#90aff4"/>
  <path id="path88" d="M1268.82-441.116h125.759l3.473-2.043H1271.514l-2.695,2.043" transform="translate(-1154.034 644.31)" fill="#7599ea"/>
  <path id="path90" d="M1756.982-230.159h27.229v-1.294h-27.229Z" transform="translate(-1598.035 451.757)" fill="#aec3ff"/>
  <path id="path92" d="M1722.6-420.572l-.141.989-25.607,5.173.351-4.178.168-1.984H1722.6" transform="translate(-1543.342 623.767)" fill="#5888dd"/>
  <path id="path94" d="M1719.2-312.838h-21.953c-1.961-.006-3.592-.016-4.619-.029-2.246-.028-2.64-2-2.658-3.271l25.486-4.795c-.265,2.92-.42,4.785-.422,5.14v.019a3.031,3.031,0,0,0,.051.559c.427,2.275,3.725,2.377,4.116,2.377" transform="translate(-1537.084 533.141)" fill="#7a9feb"/>
  <path id="path96" d="M1779.9-231.441c-3.31,0-6.726,0-9.487-.012h21.953c-.542,0-6.322.012-12.466.012" transform="translate(-1610.247 451.756)" fill="#8cabf1"/>
  <path id="path98" d="M1039.532-1483.823H1164.4l20.26,75.663H1058.368l-18.836-75.663" transform="translate(-945.49 1590.83)" fill="#aec3ff"/>
  <path id="path100" d="M1230.773-1370.68H1113.856l-4.178-16.643-1.616-6.44-.659-2.626-4.294-17.1-.222-.89-2.27-9.042-1.016-4.044-.866-3.451-2.031-8.089h115.23l2.23,8.089.952,3.451,1.115,4.044,7.347,26.651h0l.622,2.258.289,1.048,5.073,18.4,1.21,4.388" transform="translate(-997.489 1550.07)" fill="#739af0"/>
  <path id="path102" d="M1214.17-1430.933H1098.74l-2.031-8.09h115.231l2.229,8.09" transform="translate(-997.494 1550.083)" fill="#607cf4"/>
  <path id="path104" d="M1149.089-1408.772a.764.764,0,0,1,.759-1.011,1.381,1.381,0,0,1,1.263,1.011.765.765,0,0,1-.759,1.012,1.382,1.382,0,0,1-1.264-1.012" transform="translate(-1045.107 1523.488)" fill="#e9f3fe"/>
  <path id="path106" d="M1186.233-1408.772a.764.764,0,0,1,.759-1.011,1.381,1.381,0,0,1,1.263,1.011.765.765,0,0,1-.759,1.012,1.382,1.382,0,0,1-1.263-1.012" transform="translate(-1078.89 1523.488)" fill="#e9f3fe"/>
  <path id="path108" d="M1226.228-1408.772a.764.764,0,0,1,.759-1.011,1.381,1.381,0,0,1,1.263,1.011.765.765,0,0,1-.759,1.012,1.382,1.382,0,0,1-1.263-1.012" transform="translate(-1115.268 1523.488)" fill="#e9f3fe"/>
  <path id="path110" d="M2048.361-2416.182c4.726-5.549,12.013-16.694,16.918-22.4a1.81,1.81,0,0,0-1.379-2.988h-8.927l8.42-19.04a.746.746,0,0,0-1.28-.749l-20.361,27.252a1.127,1.127,0,0,0,1.041,1.792l10.105-1.245-6.013,16.517a.868.868,0,0,0,1.474.863" transform="translate(-1856.838 2480.211)" fill="#f77d48"/>
  <path id="path112" d="M1540.854-1943.723c1.063-5.452,1.733-15.581,2.858-21.206a1.379,1.379,0,0,0-2.034-1.468l-5.929,3.339-1.529-15.8a.57.57,0,0,0-1.132-.018l-3.329,25.715a.859.859,0,0,0,1.362.8l6.247-4.608,2.184,13.22a.661.661,0,0,0,1.3.02" transform="translate(-1391.36 2041.546)" fill="#aec3ff"/>
  <path id="path114" d="M1502.785-1752.4l-101.591,8.558a10.168,10.168,0,0,1-10.138-14.282l43.04-96.324a10.169,10.169,0,0,1,17.743-1.495l58.551,87.765a10.169,10.169,0,0,1-7.605,15.777" transform="translate(-1264.394 1933.404)" fill="#e6efff"/>
  <path id="path116" d="M1404.049-1895.381a6.234,6.234,0,0,0-5.234,3.715l-43.041,96.326a6.256,6.256,0,0,0,.616,6.229,6.256,6.256,0,0,0,5.678,2.637l101.591-8.559a6.254,6.254,0,0,0,5.157-3.55,6.256,6.256,0,0,0-.434-6.245l-58.551-87.765a6.233,6.233,0,0,0-5.781-2.787m60.258,108.032-101.591,8.559a13.9,13.9,0,0,1-12.615-5.857,13.9,13.9,0,0,1-1.368-13.84l43.04-96.324a13.845,13.845,0,0,1,11.628-8.254,13.847,13.847,0,0,1,12.845,6.191l58.551,87.766a13.9,13.9,0,0,1,.966,13.874,13.9,13.9,0,0,1-11.457,7.885" transform="translate(-1225.593 1972.193)" fill="#f77d48"/>
  <path id="path118" d="M1909.621-1536.408l-14.634,1.233L1888.7-1585l18.78-1.583Zm-15.707,18.379a9.31,9.31,0,0,1,.4-3.69,8.518,8.518,0,0,1,1.738-3.053,9.131,9.131,0,0,1,2.919-2.164,11.39,11.39,0,0,1,4-1.026,11.626,11.626,0,0,1,4.142.341,9.068,9.068,0,0,1,3.27,1.642,8.535,8.535,0,0,1,2.226,2.72,9.333,9.333,0,0,1,1.007,3.571,9.094,9.094,0,0,1-.4,3.66,8.6,8.6,0,0,1-1.741,3.024,9.049,9.049,0,0,1-2.95,2.166,11.634,11.634,0,0,1-4.026,1.029,11.39,11.39,0,0,1-4.113-.343,9.09,9.09,0,0,1-3.239-1.645,8.548,8.548,0,0,1-2.223-2.69,9.091,9.091,0,0,1-1-3.542" transform="translate(-1717.839 1684.293)" fill="#f77d48"/>
  <path id="path120" d="M1249-1020.26s.319-.716.525-1.055,1.088-1.333,1.238-1.107.75,1.739.431,2.163.021,1.163-1.565,1.609l-.629-1.609" transform="translate(-1136.005 1171.2)" fill="#ffb27d"/>
  <path id="path122" d="M1054.232-1048.184s8.116,6.775,11.281,6.148c2.475-.491,6.387-1.732,6.387-1.732a2.5,2.5,0,0,1,.741,2.16s-4.984,4.69-8.536,4.72c-5.551.047-8.168-2.75-8.168-2.75l-1.7-8.546" transform="translate(-958.86 1194.601)" fill="#ed7d2b"/>
  <path id="path124" d="M896.888-270.553s.236,3.8.971,3.855c.1.007,3.73.007,3.73.007l4.636-.027a1.5,1.5,0,0,0-1.386-1.353c-1.355-.236-3.623-1.189-4.444-2.981-.864-1.884-3.507.5-3.507.5" transform="translate(-815.751 488.432)" fill="#113c68"/>
  <path id="path126" d="M893.935-727.1a9.665,9.665,0,0,0,2.51.472,9.22,9.22,0,0,0,2.343-.334,64.156,64.156,0,0,1,1.725-8.219c.766-2.964,1.859-6.774,3.414-11.508a155.819,155.819,0,0,0,5.727-21.465c.006-.037.009-.057.009-.057l-.014-.006-13.221-5.805s1.634,18.034-.451,24.957a29.1,29.1,0,0,0-.757,3.316c-1.317,7.518-1.286,18.65-1.286,18.65" transform="translate(-813.064 945.244)" fill="#2a4e96"/>
  <path id="path128" d="M920.925-735.184c.766-2.964,1.859-6.774,3.414-11.508a155.819,155.819,0,0,0,5.727-21.465c0-.022,0-.042-.005-.063l-13.221-5.805s1.634,18.034-.451,24.957c-.292.967,4.535,13.885,4.535,13.885" transform="translate(-833.476 945.244)" fill="#233862"/>
  <path id="path130" d="M1011.032-270.553s.236,3.8.971,3.855c.1.007,3.729.007,3.729.007l4.636-.027a1.5,1.5,0,0,0-1.385-1.353c-1.355-.236-3.623-1.189-4.444-2.981-.864-1.884-3.507.5-3.507.5" transform="translate(-919.568 488.432)" fill="#15447c"/>
  <path id="path132" d="M952.565-769.331a188.205,188.205,0,0,1-1.85,26.035c-2.022,14.349-1.336,20.439-1.336,20.439a13.8,13.8,0,0,1-1.95.5,8.837,8.837,0,0,1-2.893-.334s-2.894-14.354-2.064-21.536-3.963-24.644-3.963-24.644l14.057-.456" transform="translate(-853.605 940.975)" fill="#2a4e96"/>
  <path id="path134" d="M990.263-1129.7l2.581,1.691,2.351-.665a5.617,5.617,0,0,0,.55-2.818,17.536,17.536,0,0,0-.092-1.877l-3.482-1.537-1.3-.573c0,.021.1,1.068.115,1.219a8.891,8.891,0,0,1-.723,4.558" transform="translate(-900.678 1273.997)" fill="#ffb27d"/>
  <path id="path136" d="M930.734-1050.883c-3.212,3.1-15.369,2.58-16.118-.837s.817-29.089,6.3-30.7c1.139-.334,7.226,1.633,7.226,1.633a38.621,38.621,0,0,1,1.582,5.68c.122.62.476,7.179.742,13.317.124,2.871.229,5.649.282,7.684a22.152,22.152,0,0,1-.018,3.225" transform="translate(-831.715 1225.776)" fill="#f99746"/>
  <path id="path138" d="M1000.136-1128.454c.706,1.194,3.185,2.24,4.5,2.719a17.535,17.535,0,0,0-.092-1.877l-3.482-1.537c-.77-.011-1.239.161-.924.695" transform="translate(-909.567 1268.242)" fill="#fca56b"/>
  <path id="path140" d="M985.691-1207.335s-5.61,1.75-6.646-1.76-2.458-5.649,1.08-6.915,4.632-.133,5.263.955,1.735,7.174.3,7.72" transform="translate(-889.404 1347.752)" fill="#ffb27d"/>
  <path id="path142" d="M960.63-1234.657s-.358,4.084-1.2,3.907-1.775-.556-1.651.675-.822,3.342-2.04,3.336c-2.612-.011-5.451-6.715-4.736-7.985,2.064-3.668,12.612-4.409,9.629.066" transform="translate(-864.865 1367.017)" fill="#163560"/>
  <path id="path144" d="M991.792-1098.369c-.072-.03-4.176-1.872-4.656-1.713s-1.078,1.624-1.078,1.624l7.226,1.634a3.589,3.589,0,0,0-1.492-1.545" transform="translate(-896.853 1241.813)" fill="#ed7d2b"/>
  <path id="path146" d="M1078.943-883.4l-23,21.66c-.451.425-1.02.56-1.264.3l-.777-.825c-.244-.259-.075-.818.376-1.242l23.005-21.66c.451-.425,1.02-.56,1.264-.3l.776.824c.244.259.075.819-.376,1.244" transform="translate(-958.455 1046.728)" fill="#1f4d84"/>
  <path id="path148" d="M1066.034-744.7l-10.1,9.5c-.451.425-1.02.56-1.264.3l-.777-.825c-.244-.259-.075-.818.376-1.242l10.1-9.5,1.664,1.767" transform="translate(-958.455 920.177)" fill="#739af0"/>
  <path id="path150" d="M1270.712-1202.5a16.589,16.589,0,0,1,14.942-4.984,16.529,16.529,0,0,1,8.533,4.269,16.606,16.606,0,0,1,.715,23.475,16.537,16.537,0,0,1-8.255,4.779,16.589,16.589,0,0,1-15.22-4.062,16.608,16.608,0,0,1-.715-23.476m-5.154,16.641a17.942,17.942,0,0,0,4.894,7.872,18.032,18.032,0,0,0,25.488-.778,18.028,18.028,0,0,0-.495-25.214c-.093-.093-.187-.183-.283-.273a18.029,18.029,0,0,0-25.486.776,18.021,18.021,0,0,0-4.117,17.617" transform="translate(-1150.357 1341.008)" fill="#1f4d84"/>
  <path id="path152" d="M1291.467-1161.194a16.425,16.425,0,0,1-3.409-1.7,16.777,16.777,0,0,1-2.324-1.829,16.608,16.608,0,0,1-.715-23.476q.392-.418.807-.8a16.553,16.553,0,0,1,11.29-4.427,16.7,16.7,0,0,1,2.845.245,16.5,16.5,0,0,1,5.023,1.734l-13.517,30.251" transform="translate(-1164.664 1326.702)" fill="#93b5f5"/>
  <path id="path154" d="M1491.063-1085.358l11.426-25.573c.046.069.092.139.136.209a16.578,16.578,0,0,1,2.549,7.573,16.569,16.569,0,0,1-4.457,12.744,16.537,16.537,0,0,1-8.255,4.779c-.462.11-.93.2-1.4.269" transform="translate(-1356.172 1251.671)" fill="#ccdffc"/>
  <path id="path156" d="M1407.306-1140.308q-.789,0-1.576-.075a16.58,16.58,0,0,1-4.066-.911l13.517-30.251a16.454,16.454,0,0,1,1.827,1.144,16.685,16.685,0,0,1,1.683,1.389,16.558,16.558,0,0,1,2.487,2.95l-11.427,25.573a16.762,16.762,0,0,1-2.445.18" transform="translate(-1274.86 1306.801)" fill="#d5a6a1"/>
  <path id="path158" d="M1297.11-1128.811c-.526,0-1.053-.025-1.578-.075q.787.074,1.576.075a16.762,16.762,0,0,0,2.445-.18c.469-.07.937-.159,1.4-.269a16.535,16.535,0,0,0,8.255-4.779,16.569,16.569,0,0,0,4.457-12.744,16.573,16.573,0,0,1-4.456,12.744,16.555,16.555,0,0,1-8.257,4.78,16.724,16.724,0,0,1-3.843.448m-9.052-2.683a16.7,16.7,0,0,1-2.324-1.829,16.608,16.608,0,0,1-.715-23.477q.393-.418.807-.8-.415.383-.807.8a16.608,16.608,0,0,0,.715,23.477,16.777,16.777,0,0,0,2.324,1.829m23.059-22.861c-.045-.07-.09-.14-.136-.209a16.55,16.55,0,0,0-2.487-2.95,16.687,16.687,0,0,0-1.683-1.39,16.839,16.839,0,0,1,1.683,1.388,16.646,16.646,0,0,1,2.624,3.16" transform="translate(-1164.663 1295.305)" fill="#698ebf"/>
  <path id="path160" d="M977.68-981.058c-12.676-9.032-11.622-21.086-11.622-21.086,4.633,2.613,9.23,8.391,11.34,13.4.124,2.871.229,5.649.282,7.684" transform="translate(-878.643 1152.727)" fill="#ed7d2b"/>
  <path id="path162" d="M1217.772-824.585a3.458,3.458,0,0,0,1.619-1s.381.025-.062.838c-.037.069-.12.244-.182.367a.079.079,0,0,0,.066.113,8.52,8.52,0,0,1,2.028.042c.137.029.177.357.172.5a1.268,1.268,0,0,1-.267.866,4.411,4.411,0,0,1-1.6.838,4.826,4.826,0,0,1-2.479-.311l-.812-.375.252-1.509.2.043c.324.068.725-.328,1.062-.41" transform="translate(-1106.224 992.14)" fill="#ffb27d"/>
  <path id="path164" d="M967.55-1063.971s-11.39,2.169,3.351,18.662c2.357,2.638,15.094,6.072,15.094,6.072s1.292-1.1.641-1.989c0,0-8.77-6.369-10.7-7.381-.868-.456-3.369-10.165-4.784-12.5a6.377,6.377,0,0,0-3.6-2.862" transform="translate(-876.201 1208.96)" fill="#f99746"/>
  <path id="path166" d="M1252.41-1023.881a5.8,5.8,0,0,0,.445-1.087,6.009,6.009,0,0,1,.735-1.665c.077-.077.333.023.363.355a1.937,1.937,0,0,1-.183.721,8.1,8.1,0,0,0-.241,1.431c-.176.574-1.119.245-1.119.245" transform="translate(-1139.11 1175.021)" fill="#ffb27d"/>
  <path id="path168" d="M1300.733-1370.3a.687.687,0,0,0-.123.735l0,0a4.566,4.566,0,0,0,1.442,1.583c.087.07.164.134.231.193l.052.047.04.036c.634.585.4.719,1.535,1.906,1.3,1.352,2.193,1.376,2.447,1.253.216-.1-.222-.822-.706-1.627l-.071-.118-.193-.323c-.567-.97-.421-1.426-.286-2.868.11-1.174,1.826-6.552,1.826-6.552l-2.49-.431s-.75,4.285-1.577,4.943c-.442.352-.936.356-1.361.616-.03.018-.059.037-.088.057a3.26,3.26,0,0,0-.681.546" transform="translate(-1182.9 1493.182)" fill="#ffb27d"/>
  <path id="path170" d="M1300.733-1313.837a.687.687,0,0,0-.123.735l0,0a5.292,5.292,0,0,0,1.445,1.578c.086.071.162.137.229.2l.052.047.04.036c.634.585.4.719,1.535,1.906,1.3,1.352,2.193,1.376,2.447,1.253.216-.1-.222-.821-.706-1.627a5.536,5.536,0,0,1-2.316-1.708c-.754-.963-1.265-2.188-1.778-2.942l-.146-.026a3.261,3.261,0,0,0-.682.546" transform="translate(-1182.9 1436.718)" fill="#233862"/>
  <path id="path172" d="M1504.452-1379.4c.153.768,1.25.64,2.473.343s.934.057,2.675-.136,2.27-.841,2.323-1.1c.048-.23-.813-.311-1.736-.419-.116-.012-.233-.026-.35-.041a7.536,7.536,0,0,1-2.751-1.357,11.046,11.046,0,0,1-2.235-2.656l-2.388.188s1.252,1.9,1.737,2.733a2.882,2.882,0,0,1,.234,1.627,3.1,3.1,0,0,0,.018.818" transform="translate(-1366.541 1500.738)" fill="#ffb27d"/>
  <path id="path174" d="M1526.558-1338.3c1.224-.3.934.057,2.675-.136s2.27-.841,2.323-1.1c.048-.23-.813-.311-1.736-.418l-.008.018a4.912,4.912,0,0,1-2.5.774c-1.182.029-2.433-.31-3.25-.3a3.1,3.1,0,0,0,.018.818c.153.768,1.25.641,2.473.343" transform="translate(-1386.175 1459.978)" fill="#233862"/>
  <path id="path176" d="M1340.862-1532.852l-2.235,6.01-2.918,7.845a4.724,4.724,0,0,1-1.549-.142,6.681,6.681,0,0,1-1.5-.73s.812-8.424,2.324-13.26a8.591,8.591,0,0,1,1.3-2.811c2.342-2.766,4.575,3.088,4.575,3.088" transform="translate(-1212.101 1638.906)" fill="#233862"/>
  <path id="path178" d="M1181.044-1611.977c-1.271-.41-4.589-.008-8.187.642a2.439,2.439,0,0,1-2.519-1.139l-9.054-.709s-2.99,6.625-1.356,10.846a1.588,1.588,0,0,0,1.582,1.022s5.471.01,7.221.01c4.5,0,9.531-3.092,10.181-3.222,1.064-.212,1.49,1.917,2.552,4.152s10,9.9,10,9.9a7.885,7.885,0,0,0,1.942-.2,1.916,1.916,0,0,0,.833-.526s-9.9-19.714-13.2-20.78" transform="translate(-1054.55 1708.487)" fill="#2a4e96"/>
  <path id="path180" d="M1121.112-1904.644a3.2,3.2,0,0,0-1.729-.45,4.952,4.952,0,0,1-.835-.051c-3.455-.509-5.538,4.51-5.661,6.027-.225,2.784-1.7,3.207-3.772,4.951-4.158,3.494-2.941,7.558-.668,9.068,1.364.907,3.768,0,3.768,0,.034.024,6.576-3.654,9.8-5.428,4.834-.685,1.038-12.963-.9-14.12" transform="translate(-1006.276 1974.069)" fill="#233862"/>
  <path id="path182" d="M1205.156-1810.871a4.261,4.261,0,0,1-2.657.081,4.732,4.732,0,0,1-1.754-2.1c.458-.022.961-.421,1.349-3.049l.2.07,3.279,1.182s-.238,1.052-.392,2.053c-.13.842-.2,1.648-.021,1.766" transform="translate(-1092.119 1892.903)" fill="#ffb27d"/>
  <path id="path184" d="M1221.1-1813.987s-.131.567-.322,1.627a3.7,3.7,0,0,1-2.956-2.809l3.279,1.182" transform="translate(-1107.646 1892.2)" fill="#ed975d"/>
  <path id="path186" d="M1218.284-1869.907s-4.486-.6-4.067-3.392.122-4.744,3-4.476,3.277,1.415,3.364,2.38-1.123,5.573-2.3,5.488" transform="translate(-1104.346 1949.165)" fill="#ffb27d"/>
  <path id="path188" d="M1207.486-1879.4s-2.873,2.475-4.827,2.673a3.744,3.744,0,0,1-2.693-.428,7.625,7.625,0,0,0,1.845-2.5,1.373,1.373,0,0,1,1.133-.809c1.395-.119,4.039-.174,4.542,1.063" transform="translate(-1091.41 1951.64)" fill="#233862"/>
  <path id="path190" d="M1263.242-1875.974a7.083,7.083,0,0,1,1.263,1.619,5.429,5.429,0,0,1,.146,2.886s1.5-2.909.651-4.324a1.2,1.2,0,0,0-2.06-.181" transform="translate(-1148.962 1947.992)" fill="#233862"/>
  <path id="path192" d="M1170.195-1774.667c-.139,9.082-.04,7.183-1.033,8.045a3.814,3.814,0,0,1-1.8.388c-2.785.184-7.68-.276-7.866-.791-.642-1.78-.188-2.334-.723-5.06-.056-.291-.125-.6-.206-.946-.446-1.873-.881-2.51.705-5.517a23.483,23.483,0,0,1,3.067-4.856c3.792,2.253,4.1.361,4.1.361s3.823,3.946,3.755,8.376" transform="translate(-1053.381 1863.31)" fill="#f99746"/>
  <path id="path194" d="M1338.627-1491.123l-2.918,7.845a4.724,4.724,0,0,1-1.549-.142,6.681,6.681,0,0,1-1.5-.73s.812-8.424,2.324-13.26l3.64,6.287" transform="translate(-1212.101 1603.187)" fill="#2a4e96"/>
  <path id="path196" d="M1249.728-1779.409s3.9.663,4.36,2.344,1.963,11.88,1.963,11.88-1.1,1.075-2.017.158-2.881-9.544-2.881-9.544l-1.425-4.838" transform="translate(-1136.67 1859.675)" fill="#f99746"/>
  <path id="path198" d="M1173.583-1690.442c-2.785.184-7.68-.276-7.866-.791-.642-1.781-.188-2.334-.723-5.06l1.345-3.783s-.224,4.212,1.018,5.321,5.085,2.14,5.688,3.066a3.388,3.388,0,0,1,.538,1.247" transform="translate(-1059.602 1787.519)" fill="#ed7d2b"/>
  <path id="path200" d="M1224.674-1617.438s2.748-.611,3.191-.367a6.453,6.453,0,0,1,1.662,1.44c.135.31-.987-.234-1.352-.333a3.271,3.271,0,0,0-1.167.256,3.873,3.873,0,0,1-2.091.209l-.242-1.2" transform="translate(-1113.883 1712.743)" fill="#ffb27d"/>
  <path id="path202" d="M1114.866-1783.409s-3.689.227-4.967,2.007c-1.8,2.506-5.368,13.191-3.325,14.617,2.3,1.605,10.475.423,10.475.423a3.319,3.319,0,0,0-.106-1.886c-.378-.615-6.528-1.61-6.812-1.895s3.55-5.533,3.55-6.384,1.184-6.882,1.184-6.882" transform="translate(-1005.91 1863.313)" fill="#f99746"/>
  <path id="path204" d="M1261.413-1608.769a5.341,5.341,0,0,0,.764.831.57.57,0,0,0,.311.066l-.388-.7-.687-.2" transform="translate(-1147.298 1704.473)" fill="#ffb27d"/>
  <path id="path206" d="M1259.945-1617.223l1.673.813a.3.3,0,0,1-.277.107,4,4,0,0,1-.726-.2l-.67-.72" transform="translate(-1145.963 1712.161)" fill="#ffb27d"/>
  <path id="path208" d="M1242.149-1596.11l-17.482-.006v.386l17.327.006.156-.386" transform="translate(-1113.876 1692.964)" fill="#233862"/>
  <path id="path210" d="M1269.855-1691.4l13.239,0,3.986-9.9-13.219,0-4.006,9.9" transform="translate(-1154.977 1788.635)" fill="#233862"/>
  <path id="path212" d="M1366.345-1652.873a.458.458,0,0,0-.45-.63.9.9,0,0,0-.811.63.459.459,0,0,0,.449.631.9.9,0,0,0,.812-.631" transform="translate(-1241.568 1745.159)" fill="#fff"/>
  <path id="path214" d="M2287.493-1181.307a3.8,3.8,0,0,0-3.018.154c-5.135.211-5.325,5.475-4.722,7.434.847,2.751-2.149,4.92,1.172,6.033,3.855,1.292,7.09-.24,6.87.425,12.191.961,3.755-12.7-.3-14.046" transform="translate(-2073.117 1315.888)" fill="#163560"/>
  <path id="path216" d="M2234.551-1005.738a13.5,13.5,0,0,1-1.373,2.076c-1.067,1.336-6.666-1.835-6.184-2.076s3.3-8.347,3.966-9.365,2.953-1.548,2.953-1.548l.638,10.913" transform="translate(-2025.5 1165.921)" fill="#f99746"/>
  <path id="path218" d="M2463.381-298.466s1.545,1.411,1.243,2.412-1.7,1.671-1.884,2.895-.943,1.893-1.621,1.893h-3.235s-.5-.861.707-1.122,1.661-1.7,1.586-3.035a23.523,23.523,0,0,1,.112-3.117l2.563-.593.529.667" transform="translate(-2235.436 513.313)" fill="#1f447f"/>
  <path id="path220" d="M2286.572-285.133s.556,5.974-.122,6.309l-8.682-.018s0-1,1.395-1.224,3.844-1.04,4.259-2.859,3.151-2.207,3.151-2.207" transform="translate(-2071.707 500.58)" fill="#1c3154"/>
  <path id="path222" d="M2291.209-1014.519a34.318,34.318,0,0,1,0,4.013c-.086,1.451-1.554,3.394-1.761,3.874-.524,1.206-1.112,1.4-1.112,1.4l-4.558,1.117-1.6.392-5.055-1.509s-2.3-6.427-1.377-10.044a27.777,27.777,0,0,1,2.336-6.129,36.1,36.1,0,0,1,9.5-.343l3.635,7.225" transform="translate(-2069.665 1170.672)" fill="#f99746"/>
  <path id="path224" d="M2366.35-935.161c-.086,1.451-1.988,3.344-2.2,3.824-.524,1.206-1.112,1.4-1.112,1.4l-4.558,1.117-.824-2.359s6.661-1.749,5.59-7.914l3.1,3.93" transform="translate(-2144.373 1095.377)" fill="#ed7d2b"/>
  <path id="path226" d="M2269.9-827.1s-2.5,7.792-2.665,10.445,4.785,37.684,4.984,38.906c.188,1.153,1.619,1.886,1.619,1.886a2.162,2.162,0,0,0,1.6.123,3.957,3.957,0,0,0,1.715-.808s1.948-24.984.742-33.909a141.462,141.462,0,0,1-1.219-16.643H2269.9" transform="translate(-2062.124 993.522)" fill="#233862"/>
  <path id="path228" d="M2315.615-829.665s3.819,5.123,4.175,8.586.559,15.629,1.317,19.005,3.544,9.873,3.544,20.4a2.1,2.1,0,0,1-1.184.924,9.63,9.63,0,0,1-1.041.288,1.636,1.636,0,0,1-1.831-.868c-1.884-3.794-7.885-16.026-8.193-18.565-.217-1.8-2.112-13.69-6.245-20.67-.993-1.675.609-8.339.609-8.339l8.848-.766" transform="translate(-2097.235 995.85)" fill="#2a4e96"/>
  <path id="path230" d="M2290.873-840.4a5.25,5.25,0,0,0,3,.836c2.385.047,8.294-.608,8.294-.608a4.915,4.915,0,0,1,.252,1.508s-7.217,1.82-11.4.265a2.642,2.642,0,0,1-.148-2" transform="translate(-2083.497 1005.613)" fill="#233862"/>
  <path id="path232" d="M2308.216-835.317a.81.81,0,0,0-.728.871.81.81,0,0,0,.728.871.81.81,0,0,0,.727-.871A.81.81,0,0,0,2308.216-835.317Zm0,2.1a1.168,1.168,0,0,1-1.088-1.232,1.168,1.168,0,0,1,1.088-1.232,1.167,1.167,0,0,1,1.088,1.232,1.167,1.167,0,0,1-1.088,1.232" transform="translate(-2098.411 1001.32)" fill="#fff"/>
  <path id="path234" d="M2214.084-909.789l-10.846.1L2197.9-922.23l10.846-.1,5.336,12.542" transform="translate(-1999.066 1080.134)" fill="#b5453c"/>
  <path id="path236" d="M2305.164-866.3l-.795-.977a2.784,2.784,0,0,0-.929-.561c-.39-.082-1.215-.557-1.294-.423s.633,1.089.633,1.089l.036.006c-.819.615-2.886.072-3.141.323-.31.3.426.963.82,1.333a2.9,2.9,0,0,0,2.4.712c.642-.2,1.654-.4,1.654-.4l.614-1.1" transform="translate(-2091.564 1030.978)" fill="#ffb27d"/>
  <path id="path238" d="M2206.214-901.889s.682-.774,1.116-.4-.113,2.2-.527,2.014-.826-1.385-.589-1.612" transform="translate(-2006.563 1061.999)" fill="#ffb27d"/>
  <path id="path240" d="M2353.367-1020.437s3.1.343,5.334,4.391c1.756,3.193,4.761,9.078,3.627,10.741-.5.73-5.268,3.327-14.468,1.842a2.785,2.785,0,0,1,.887-1.7s7.742-2.485,7.729-2.979c-.025-.936-1.046-1.744-5.371-6.07-1.176-1.177,2.261-6.224,2.261-6.224" transform="translate(-2135.459 1169.365)" fill="#f99746"/>
  <path id="path242" d="M2335.176-1066.356c.107-.144-.03-.6-.2-1.449a15.861,15.861,0,0,1-.41-3.3l-.229.039-3.848.648s.087,1.029.089,2v.024c0,.842-.228,2.115.057,2.281,1.457.854,4.131.31,4.541-.241" transform="translate(-2119.658 1215.448)" fill="#ffb27d"/>
  <path id="path244" d="M2330.488-1070.03s.076,1.451.078,2.42c2.154-.052,3.3-2.142,3.77-3.067l-3.848.648" transform="translate(-2119.657 1215.06)" fill="#e8945b"/>
  <path id="path246" d="M2301.352-1133.852s5.044-.718,4.549-3.853-.178-5.339-3.42-5.013-3.678,1.621-3.767,2.708,1.314,6.264,2.638,6.158" transform="translate(-2090.755 1280.612)" fill="#ffb27d"/>
  <path id="path248" d="M2314.928-1147.946s1.962,3.458,4.164,3.664,3.028-.505,3.028-.505a6.064,6.064,0,0,1-2.522-3.225s-3.909-1.849-4.669.066" transform="translate(-2105.505 1286.128)" fill="#163560"/>
  <path id="path250" d="M2296.108-1141.211a3.156,3.156,0,0,0-1.261,1.356,5.127,5.127,0,0,0-.222,2.987s-1.437-2.334-.5-3.933c1-1.7,1.979-.409,1.979-.409" transform="translate(-2086.297 1279.639)" fill="#163560"/>
  <path id="path252" d="M732.815-216.245H453.174a.351.351,0,0,1-.35-.35v-.2a.35.35,0,0,1,.35-.35H732.815a.35.35,0,0,1,.35.35v.2a.351.351,0,0,1-.35.35" transform="translate(-411.859 438.744)" fill="#233862"/>
</svg>
